<?xml version="1.0" encoding="UTF-8" standalone="no"?><!DOCTYPE svg PUBLIC "-//W3C//DTD SVG 1.1//EN" "http://www.w3.org/Graphics/SVG/1.1/DTD/svg11.dtd"><svg width="100%" height="100%" viewBox="0 0 1024 1024" version="1.1" xmlns="http://www.w3.org/2000/svg" xmlns:xlink="http://www.w3.org/1999/xlink" xml:space="preserve" xmlns:serif="http://www.serif.com/" style="fill-rule:evenodd;clip-rule:evenodd;stroke-linejoin:round;stroke-miterlimit:2;"><g><path d="M1024,256l0,512c0,141.29 -114.71,256 -256,256l-512,0c-141.29,0 -256,-114.71 -256,-256l0,-512c0,-141.29 114.71,-256 256,-256l512,0c141.29,0 256,114.71 256,256Z" style="fill:#3e83ff;"/><rect x="229.053" y="188.632" width="579.368" height="154.947" style="fill:#0045b1;"/><path d="M792.253,161.684l15.143,0c30.311,0 54.92,24.609 54.92,54.92l-0,590.792c-0,30.311 -24.609,54.92 -54.92,54.92l-590.792,-0c-30.311,-0 -54.92,-24.609 -54.92,-54.92l0,-590.792l54.92,-54.92l15.143,0l0,148.455c0,14.738 11.966,26.703 26.704,26.703l507.098,0c14.738,0 26.704,-11.965 26.704,-26.703l-0,-148.455Z" style="fill:#002b6e;"/><g transform="matrix(167.391,0,0,167.391,819.946,795.549)"></g><text x="239.702px" y="795.549px" style="font-family:'Arial-BoldMT', 'Arial', sans-serif;font-weight:700;font-size:167.391px;fill:#d5ac71;">R<tspan x="352.216px 390.353px 493.632px 531.769px 613.47px 651.607px 773.439px " y="795.549px 795.549px 795.549px 795.549px 795.549px 795.549px 795.549px ">.E.P.O.</tspan></text><circle cx="512" cy="512" r="134.737" style="fill:#fff;"/><path d="M754.526,175.414l0,147.698c0,7.578 -6.152,13.73 -13.73,13.73l-322.856,0c-7.577,0 -13.729,-6.152 -13.729,-13.73l-0,-147.698c-0,-7.578 6.152,-13.73 13.729,-13.73l322.856,0c7.578,0 13.73,6.152 13.73,13.73Z" style="fill:#f3f8ff;"/><path d="M700.632,224.028l-0,90.891c-0,4.663 -3.786,8.449 -8.45,8.449l-90.891,0c-4.663,0 -8.449,-3.786 -8.449,-8.449l0,-90.891c0,-4.663 3.786,-8.449 8.449,-8.449l90.891,-0c4.664,-0 8.45,3.786 8.45,8.449Z" style="fill:#0042ab;"/><path d="M577.012,553.194l20.085,20.084c1.03,1.031 1.03,2.704 -0,3.734l-20.085,20.085c-1.03,1.03 -2.703,1.03 -3.734,-0l-20.084,-20.085c-1.031,-1.03 -1.031,-2.703 -0,-3.734l20.084,-20.084c1.031,-1.031 2.704,-1.031 3.734,-0Z" style="fill:#0042ab;"/></g></svg>